<?xml version="1.0" encoding="UTF-8"?>
<!DOCTYPE svg PUBLIC "-//W3C//DTD SVG 1.1//EN" "http://www.w3.org/Graphics/SVG/1.1/DTD/svg11.dtd">
<!-- Creator: CorelDRAW -->
<svg xmlns="http://www.w3.org/2000/svg" xml:space="preserve" width="32.2693mm" height="9.2638mm" version="1.1" style="shape-rendering:geometricPrecision; text-rendering:geometricPrecision; image-rendering:optimizeQuality; fill-rule:evenodd; clip-rule:evenodd"
viewBox="0 0 2167.29 622.18"
 xmlns:xlink="http://www.w3.org/1999/xlink"
 xmlns:xodm="http://www.corel.com/coreldraw/odm/2003">
 <defs>
  <style type="text/css">
   <![CDATA[
    .fil1 {fill:#D83135;fill-rule:nonzero}
    .fil0 {fill:white;fill-rule:nonzero}
   ]]>
  </style>
 </defs>
 <g id="Warstwa_x0020_1">
  <metadata id="CorelCorpID_0Corel-Layer"/>
  <g id="_2442391360128">
   <path class="fil0" d="M176.58 610.47c33.31,-29.71 36.01,-62.11 36.01,-108.04l0 -395.31c0,-45.93 -2.7,-78.33 -36.01,-107.13l167.48 0c-33.32,28.8 -36.02,61.21 -36.02,107.13l0 395.31c0,45.93 2.7,78.32 36.02,108.04l-167.48 0z"/>
   <path class="fil1" d="M634.9 610.47c-76.54,0 -107.15,-29.71 -154.88,-98.15l-156.67 -222.4 141.36 -190.91c18.91,-25.2 28.82,-43.2 28.82,-56.73 0,-12.61 -7.21,-27.02 -22.51,-42.29l153.08 0 -197.2 272.83 179.18 253.01c15.31,21.61 42.32,49.53 80.15,84.62l-51.33 0z"/>
   <path class="fil0" d="M1066.16 608.69c-86.44,0 -120.65,-28.83 -120.65,-101.74l0 -126.98c-125.16,34.22 -184.59,46.83 -184.59,102.65 0,43.23 37.82,74.73 99.04,74.73 17.11,0 38.72,-3.6 63.94,-9.89l-48.63 65.74c-19.81,4.51 -37.82,7.2 -55.83,7.2 -89.14,0 -150.37,-58.54 -150.37,-134.18 0,-29.71 10.8,-56.73 30.61,-77.42 32.41,-32.43 81.04,-38.73 145.87,-54.03 70.24,-16.22 99.06,-27.93 99.06,-60.33 0,-36.04 -36.03,-61.24 -97.26,-61.24 -30.61,0 -68.43,10.81 -114.36,33.31l57.63 -91.82c32.42,-4.51 58.53,-6.33 79.23,-6.33 43.23,0 79.25,9.89 107.16,30.63 44.12,32.4 49.52,75.63 49.52,140.47l0 103.56c0,77.42 1.81,102.62 76.53,108.03l-36.92 57.64z"/>
   <path class="fil0" d="M1346.16 248.51c-61.23,0 -95.44,42.33 -95.44,122.44l0 159.4c0,36.01 8.11,60.3 30.61,80.12l-144.07 0c22.51,-19.82 30.61,-44.11 30.61,-80.12l0 -266.54c0,-35.99 -8.11,-61.23 -30.61,-81.05 3.6,0 6.29,0 9.9,0 29.72,0 62.14,-3.6 98.14,-9.89l6.31 68.44c26.11,-45.93 58.52,-67.53 101.75,-67.53 11.71,0 23.42,1.78 36.91,4.47l0 84.65c-13.49,-9.89 -27.01,-14.4 -44.11,-14.4z"/>
   <path class="fil0" d="M1628.89 244.91l-61.23 0 0 208c0,74.72 23.41,110.76 78.33,110.76 10.79,0 24.32,-1.81 39.63,-6.32l-43.23 63.05c-9.89,0.88 -18.91,1.79 -27.89,1.79 -86.45,0 -129.68,-44.11 -129.68,-128.76l0 -248.51 -58.54 0 0 -31.53c69.35,-6.29 112.58,-65.71 115.26,-167.48l26.12 0 0 136.86 126.98 0 0 80.15c-16.22,-14.4 -36.94,-18 -65.75,-18z"/>
   <path class="fil0" d="M2130.35 608.69c-86.43,0 -120.65,-28.83 -120.65,-101.74l0 -126.98c-125.16,34.22 -184.58,46.83 -184.58,102.65 0,43.23 37.82,74.73 99.05,74.73 17.09,0 38.69,-3.6 63.93,-9.89l-48.63 65.74c-19.81,4.51 -37.81,7.2 -55.82,7.2 -89.16,0 -150.4,-58.54 -150.4,-134.18 0,-29.71 10.83,-56.73 30.62,-77.42 32.43,-32.43 81.05,-38.73 145.86,-54.03 70.25,-16.22 99.08,-27.93 99.08,-60.33 0,-36.04 -36.03,-61.24 -97.27,-61.24 -30.62,0 -68.44,10.81 -114.36,33.31l57.64 -91.82c32.4,-4.51 58.55,-6.33 79.25,-6.33 43.23,0 79.23,9.89 107.15,30.63 44.11,32.4 49.53,75.63 49.53,140.47l0 103.56c0,77.42 1.79,102.62 76.55,108.03l-36.94 57.64z"/>
   <path class="fil0" d="M20.48 564.94c0,24.7 25.6,30.27 64.32,30.27 38.95,0 64.54,-5.12 64.54,-30.27 0,-25.15 -25.6,-30.27 -64.54,-30.27 -38.73,0 -64.32,5.34 -64.32,30.27zm143.78 0c0,35.83 -32.05,50.3 -79.46,50.3 -47.63,0 -79.23,-14.69 -79.23,-50.3 0,-35.39 31.82,-50.3 79.23,-50.3 47.41,0 79.46,14.68 79.46,50.3z"/>
   <path class="fil0" d="M164.26 472.58c0,10.69 -6.23,33.83 -10.69,33.83 -1.11,0 -1.78,-0.44 -2.67,-0.89l-6.9 -3.12c-1.56,-0.66 -2,-1.34 -2,-2 0,-2.01 7.79,-13.58 7.79,-28.72 0,-9.57 -5.35,-17.8 -16.02,-17.8 -23.15,0 -18.03,49.41 -51.63,49.41 -18.03,0 -30.94,-14.02 -30.94,-33.61 0,-7.57 3.57,-20.48 6.68,-26.26 0.89,-1.78 1.79,-2.45 2.89,-2.45 0.67,0 1.34,0.67 2.23,0.89l6 2.89c1.78,0.89 2.67,1.33 2.67,2.67 0,1.56 -6.01,10.91 -6.01,22.48 0,8.91 4.45,16.47 14.7,16.47 24.48,0 17.58,-49.41 52.3,-49.41 20.92,0 31.61,16.47 31.61,35.61zm-147.12 -32.72l18.92 36.5c0.44,0.67 0.66,1.34 0.66,2.23 0,0.66 -0.66,1.34 -1.78,2l-3.12 2c-0.66,0.45 -1.56,1.11 -2.22,1.11 -0.67,0 -1.11,-0.89 -2,-1.78l-24.93 -32.27c-0.22,-0.45 -1.11,-1.34 -1.11,-2.23 0,-0.89 1.11,-1.56 1.78,-2.22l9.57 -6.45c0.67,-0.44 1.34,-0.89 2.23,-0.89 0.89,0 1.56,0.89 2,1.99z"/>
   <path class="fil0" d="M56.76 368.41l11.35 4.9c0.44,0.22 1.56,0.44 1.56,1.34 0,1.11 -2.01,3.12 -2.01,7.35 0,7.79 11.58,15.58 17.36,20.92l73.45 0c1.78,0 2.67,0.89 2.67,2.67l0 11.58c0,1.78 -0.89,2.67 -2.67,2.67l-76.34 0c-4.01,0 -11.36,0.67 -16.92,3.79 -3.12,1.78 -4.9,2.44 -5.56,2.44 -1.34,-0.22 -2.01,-1.11 -2.23,-1.56l-5.12 -8.23c-0.66,-0.89 -1.11,-1.78 -1.11,-2.22 0,-4.01 13.8,-7.79 18.7,-8.68 -6.23,-5.78 -18.7,-13.8 -18.7,-26.7 0,-5.12 1.78,-10.91 3.79,-10.91 0.44,0 1.11,0.44 1.78,0.66z"/>
   <path class="fil0" d="M64.99 328.13c0,20.03 19.14,26.04 41.17,26.04 25.37,0 44.29,-5.78 44.29,-26.26 0,-19.81 -18.03,-25.82 -43.62,-25.82 -21.81,0 -41.84,6 -41.84,26.04zm99.27 1.34c0,30.04 -24.26,42.96 -56.09,42.96 -30.71,0 -56.98,-12.92 -56.98,-45.19 0,-30.49 24.48,-43.39 55.87,-43.39 31.16,0 57.2,13.13 57.2,45.62z"/>
   <path class="fil0" d="M73.45 207.72c-3.78,7.12 -7.34,14.25 -7.34,25.37 0,19.13 21.81,20.92 43.4,20.92 18.69,0 39.83,-1.56 39.83,-19.58 0,-11.58 -9.79,-21.37 -13.13,-26.71l-62.76 0zm84.8 -21.36l5.34 8.68c0.45,0.89 0.67,1.34 0.67,1.78 0,3.12 -9.57,7.12 -13.14,8.01 3.79,5.34 13.14,16.25 13.14,32.71 0,23.82 -26.71,34.72 -54.31,34.72 -32.05,0 -58.76,-11.35 -58.76,-37.17 0,-13.8 3.79,-21.36 7.57,-27.38l-52.97 0c-1.56,0 -2.45,-0.66 -2.67,-1.56l-2.67 -10.91c-0.45,-1.78 -0.22,-1.11 -0.45,-2.67 0,-1.78 1.79,-1.78 2.89,-1.78l123.08 0c10.01,0 16.69,0 22.26,-2.44 2.67,-1.11 6.9,-4 8.23,-4 0.89,0 1.34,1.11 1.78,2z"/>
   <path class="fil0" d="M64.99 134.94c0,20.48 21.36,24.92 32.49,24.92l0 -48.07c-11.57,0 -32.49,3.78 -32.49,23.14zm46.3 -38.95l0 63.87c13.57,0 38.05,-5.34 38.05,-30.71 0,-14.47 -9.12,-26.05 -9.12,-27.38 0,-0.66 0.66,-0.89 1.34,-1.33l9.34 -3.79c0.67,-0.22 1.11,-0.66 1.79,-0.66 2.44,0 11.57,18.7 11.57,35.17 -0.22,29.6 -22.7,46.96 -56.53,46.96 -32.72,0 -56.54,-16.47 -56.54,-44.07 0,-37.17 36.06,-40.51 55.2,-40.51 3.12,0 4.9,0 4.9,2.45z"/>
   <path class="fil0" d="M157.58 2.29l5.34 7.79c0.44,0.89 1.34,1.78 1.34,2.67 0,1.11 -1.11,2 -1.78,2.44l-56.09 45.41 0 0.44 52.08 0c1.78,0 2.67,0.89 2.67,2.67l0 11.57c0,1.78 -0.89,2.67 -2.67,2.67l-152.68 0c-1.56,0 -2.45,-0.67 -2.67,-1.56l-2.67 -11.13c-0.45,-1.79 -0.22,-1.11 -0.45,-2.67 0,-1.56 1.79,-1.56 2.89,-1.56l100.38 0 -50.3 -44.29c-0.66,-0.67 -1.78,-1.34 -1.78,-2.45 0,-0.89 0.89,-1.78 1.34,-2.67l5.34 -7.78c0.45,-0.45 0.67,-1.34 1.56,-1.34 1.11,0 2.01,0.89 2.67,1.55l41.62 37.62 49.63 -39.17c0.66,-0.45 1.56,-1.56 2.67,-1.56 0.89,0 1.11,0.89 1.56,1.34z"/>
  </g>
 </g>
</svg>
